:SAMPLES-PER-SECOND 30
:FULLY-SPECIFIED
:DEGREES
32
root  -53.4768 36.4522 -2.75775 149.547 86.6573 148.886
RightUpLeg  -34.1161 -0.062682 0.553056
RightLeg  60.4339 10.3174 -0.328008
RightFoot  -8.16961 -0.0342703 0.869391
RightToes  2.21189e-009 -3.18055e-015 8.94531e-016
Spine  -2.19215 -1.6088 -3.55923
Spine1  20.4727 -1.22563 -1.73321
HEad  5.21926 -2.30297 3.98513
LeftShoulder1  0 0 -2.47967e-037
LeftArm  3.14927 26.469 -80.994
LeftForeArm  -39.2523 -49.4627 29.5025
LeftHand  1.08378 7.88073 1.27752
RightShoulder  -2.48481e-017 0 -8.08114e-019
RightArm  9.17813 -33.4322 86.055
RightForeArm  -34.1193 33.5474 -30.0807
RightHand  1.18757 -11.0086 -2.65879
LeftUpLeg  -30.8323 -13.5428 -4.86477
LeftLeg  42.0325 -2.13001 8.73355
LeftFoot  -14.7988 -0.0782102 -2.77725
LeftToes  -2.77942e-009 -2.0471e-010 1.20669e-012
33
root  -52.3782 36.8265 -2.84758 164.769 87.0582 164.13
RightUpLeg  -35.7011 -0.273329 1.556
RightLeg  51.7136 10.3396 0.0517638
RightFoot  -6.22822 -0.090418 1.51336
RightToes  2.21189e-009 -3.18055e-015 8.94531e-016
Spine  -2.15099 -1.89627 -2.34498
Spine1  20.1548 -1.66536 -1.18246
HEad  5.59975 -2.16638 3.97952
LeftShoulder1  0 0 -2.47967e-037
LeftArm  3.15262 27.3194 -81.7203
LeftForeArm  -39.6798 -50.6346 30.3939
LeftHand  1.09569 7.97496 0.90519
RightShoulder  -2.48481e-017 0 -8.08114e-019
RightArm  9.99043 -35.1462 85.1329
RightForeArm  -34.3401 32.7182 -29.4019
RightHand  1.20018 -10.9893 -3.02888
LeftUpLeg  -27.9805 -13.6298 -4.21946
LeftLeg  40.4781 -1.624 8.63061
LeftFoot  -15.6562 -0.095693 -2.52779
LeftToes  -2.77942e-009 -2.0471e-010 1.20669e-012
34
root  -51.2819 37.1217 -2.93492 -179.964 86.944 179.408
RightUpLeg  -36.2406 -0.303128 2.27952
RightLeg  41.9272 10.9957 0.889945
RightFoot  -3.09914 -0.195902 2.24873
RightToes  2.21189e-009 -3.18055e-015 8.94531e-016
Spine  -2.36046 -2.3224 -1.13255
Spine1  20.3187 -2.25516 -0.775668
HEad  5.76893 -1.75685 3.90762
LeftShoulder1  0 0 -2.47967e-037
LeftArm  3.25274 28.5037 -82.3525
LeftForeArm  -40.5756 -51.881 31.3518
LeftHand  1.11728 8.15747 0.0795058
RightShoulder  -2.48481e-017 0 -8.08114e-019
RightArm  10.2838 -36.768 84.3764
RightForeArm  -34.4914 32.2916 -29.06
RightHand  1.23138 -11.167 -3.23741
LeftUpLeg  -25.3496 -13.7516 -3.66612
LeftLeg  39.2346 -1.32256 8.44106
LeftFoot  -16.661 -0.110903 -2.15687
LeftToes  -2.77942e-009 -2.0471e-010 1.20669e-012
35
root  -50.1488 37.3103 -3.00002 -169.322 86.6745 -170.144
RightUpLeg  -36.1112 -0.198939 2.64634
RightLeg  31.5848 12.438 1.78488
RightFoot  0.409988 -0.371916 3.10357
RightToes  2.21189e-009 -3.18055e-015 8.94531e-016
Spine  -3.43062 -2.78291 -0.392602
Spine1  21.3756 -2.93061 -0.332375
HEad  5.77793 -1.39552 3.62442
LeftShoulder1  0 0 -2.47967e-037
LeftArm  2.69694 29.7723 -83.0114
LeftForeArm  -41.4578 -53.6203 32.8617
LeftHand  1.11975 8.2226 -0.833166
RightShoulder  -2.48481e-017 0 -8.08114e-019
RightArm  9.46005 -38.2836 83.5097
RightForeArm  -34.9404 32.9687 -29.5669
RightHand  1.24289 -11.3098 -3.08185
LeftUpLeg  -23.1135 -13.5694 -3.30837
LeftLeg  38.4069 -1.37501 8.09648
LeftFoot  -17.8818 -0.134253 -2.06989
LeftToes  -2.77942e-009 -2.0471e-010 1.20669e-012
36
root  -49.0303 37.3894 -3.02496 -164.238 86.4455 -165.397
RightUpLeg  -35.7915 -0.126142 2.78346
RightLeg  21.7256 13.0047 1.68291
RightFoot  3.14419 -0.537367 3.76271
RightToes  2.21189e-009 -3.18055e-015 8.94531e-016
Spine  -4.41656 -3.06762 -0.0559614
Spine1  22.331 -3.50093 0.269492
HEad  5.70881 -1.09657 3.36183
LeftShoulder1  0 0 -2.47967e-037
LeftArm  1.52883 30.7331 -83.6322
LeftForeArm  -42.469 -56.1745 35.3766
LeftHand  1.14555 8.40147 -0.633136
RightShoulder  -2.48481e-017 0 -8.08114e-019
RightArm  7.25622 -39.8594 82.497
RightForeArm  -35.638 35.1889 -31.3409
RightHand  1.1804 -11.0539 -2.33213
LeftUpLeg  -21.2935 -13.1511 -3.07089
LeftLeg  37.9631 -1.60176 7.74537
LeftFoot  -18.8505 -0.141575 -1.8006
LeftToes  -2.77942e-009 -2.0471e-010 1.20669e-012
37
root  -47.9555 37.3719 -3.01328 -162.396 86.105 -163.604
RightUpLeg  -35.2609 0.49691 2.16229
RightLeg  14.1181 10.1786 0.934021
RightFoot  3.50601 -0.48602 3.31984
RightToes  2.21189e-009 -3.18055e-015 8.94531e-016
Spine  -4.42875 -3.35723 -0.015157
Spine1  22.7378 -4.15858 1.02646
HEad  5.45022 -0.831422 3.28114
LeftShoulder1  0 0 -2.47967e-037
LeftArm  -0.04542 31.2966 -83.829
LeftForeArm  -45.0458 -60.028 39.9869
LeftHand  1.19325 8.66461 0.610733
RightShoulder  -2.48481e-017 0 -8.08114e-019
RightArm  4.74388 -41.0012 81.677
RightForeArm  -36.0792 39.0023 -34.7713
RightHand  1.15335 -10.8772 -2.22554
LeftUpLeg  -19.5505 -12.6389 -2.93179
LeftLeg  38.056 -1.97804 7.45523
LeftFoot  -19.8289 -0.125902 -1.21181
LeftToes  -2.77942e-009 -2.0471e-010 1.20669e-012
38
root  -46.8802 37.2243 -2.95551 -164.184 85.9657 -165.235
RightUpLeg  -35.0486 1.52822 1.1544
RightLeg  10.578 4.88333 0.124401
RightFoot  2.28948 -0.180496 1.2712
RightToes  2.21189e-009 -3.18055e-015 8.94531e-016
Spine  -3.80846 -3.53165 -0.314189
Spine1  22.7769 -4.62676 1.62996
HEad  5.23594 -0.696324 3.2209
LeftShoulder1  0 0 -2.47967e-037
LeftArm  -1.88995 30.6676 -83.6769
LeftForeArm  -50.1613 -64.654 47.605
LeftHand  1.24145 8.89544 1.61754
RightShoulder  -2.48481e-017 0 -8.08114e-019
RightArm  2.70219 -41.2495 81.1302
RightForeArm  -36.3894 43.8137 -39.9271
RightHand  1.30798 -11.4337 -4.15196
LeftUpLeg  -17.9244 -11.763 -2.99254
LeftLeg  38.9258 -2.62957 7.17049
LeftFoot  -21.3325 -0.127411 -0.916206
LeftToes  -2.77942e-009 -2.0471e-010 1.20669e-012
39
root  -45.7836 36.9999 -2.87593 -165.683 86.3837 -166.592
RightUpLeg  -35.3589 1.75923 1.26917
RightLeg  11.4112 1.56558 -0.91272
RightFoot  2.35443 0.214002 -1.49511
RightToes  2.21189e-009 -3.18055e-015 8.94531e-016
Spine  -3.21324 -3.56527 -0.0450924
Spine1  22.9339 -4.61127 1.29692
HEad  5.29293 -0.467154 3.08987
LeftShoulder1  0 0 -2.47967e-037
LeftArm  -3.59451 28.7833 -82.858
LeftForeArm  -59.1096 -69.0019 59.1487
LeftHand  1.25389 8.84286 3.65225
RightShoulder  -2.48481e-017 0 -8.08114e-019
RightArm  0.542216 -40.1334 81.0949
RightForeArm  -39.2269 49.0989 -46.9629
RightHand  1.53828 -12.4481 -5.86905
LeftUpLeg  -16.3283 -10.4467 -3.13122
LeftLeg  40.0069 -2.97046 7.22598
LeftFoot  -23.1699 -0.142705 -0.877253
LeftToes  -2.77942e-009 -2.0471e-010 1.20669e-012
40
root  -44.641 36.7679 -2.77416 -159.813 87.1853 -160.729
RightUpLeg  -35.8238 2.16928 2.02448
RightLeg  14.3411 1.02216 -1.9636
RightFoot  5.33465 0.255879 -1.68398
RightToes  2.21189e-009 -3.18055e-015 8.94531e-016
Spine  -2.70774 -3.46297 1.07196
Spine1  22.8225 -4.17482 0.164898
HEad  5.38417 -0.0524852 2.79941
LeftShoulder1  0 0 -2.47967e-037
LeftArm  -5.0281 26.1889 -81.6049
LeftForeArm  -73.4244 -72.3907 76.1883
LeftHand  1.24498 8.67482 4.89233
RightShoulder  -2.48481e-017 0 -8.08114e-019
RightArm  -1.43699 -37.8358 81.405
RightForeArm  -45.4414 54.3044 -56.353
RightHand  1.57809 -12.7094 -5.87759
LeftUpLeg  -15.1054 -8.47558 -2.79536
LeftLeg  41.7246 -3.86828 6.91538
LeftFoot  -24.4565 -0.197333 -1.2007
LeftToes  -2.77942e-009 -2.0471e-010 1.20669e-012
41
root  -43.5358 36.4622 -2.64119 -145.186 87.332 -146.311
RightUpLeg  -37.1335 2.56306 2.94766
RightLeg  18.8139 1.54761 -2.82486
RightFoot  7.64796 0.049752 -0.261145
RightToes  2.21189e-009 -3.18055e-015 8.94531e-016
Spine  -1.1152 -3.38434 2.28619
Spine1  21.5495 -3.92157 -0.238865
HEad  5.19075 0.527897 2.08597
LeftShoulder1  0 0 -2.47967e-037
LeftArm  -7.08647 22.4833 -81.0788
LeftForeArm  -92.9218 -73.7536 97.9341
LeftHand  1.23471 8.57214 6.1588
RightShoulder  -2.48481e-017 0 -8.08114e-019
RightArm  -2.35994 -34.4257 81.2787
RightForeArm  -54.3038 58.6157 -68.3608
RightHand  1.63357 -12.8083 -6.555
LeftUpLeg  -15.781 -6.86826 -1.56214
LeftLeg  46.2717 -6.03986 5.92698
LeftFoot  -23.2285 -0.391572 -3.65656
LeftToes  -2.77942e-009 -2.0471e-010 1.20669e-012
42
root  -42.5785 36.0621 -2.48864 -130.807 86.4323 -131.718
RightUpLeg  -38.6966 2.26633 4.57776
RightLeg  24.6783 2.27137 -3.62495
RightFoot  6.54704 0.0487205 -0.298579
RightToes  2.21189e-009 -3.18055e-015 8.94531e-016
Spine  2.07472 -3.3917 3.83977
Spine1  19.8204 -3.84459 0.205612
HEad  4.34966 0.953128 1.66307
LeftShoulder1  0 0 -2.47967e-037
LeftArm  -9.04566 17.5537 -80.9482
LeftForeArm  -111.556 -72.9365 118.5
LeftHand  1.14377 8.02834 8.49175
RightShoulder  -2.48481e-017 0 -8.08114e-019
RightArm  -3.70256 -30.1069 81.4155
RightForeArm  -65.4962 61.4682 -82.5078
RightHand  1.77823 -13.2907 -7.67704
LeftUpLeg  -18.5016 -5.95988 0.591427
LeftLeg  54.0987 -8.35997 4.90382
LeftFoot  -17.2795 -0.278734 -8.44236
LeftToes  -2.77942e-009 -2.0471e-010 1.20669e-012
